<svg height="512" viewBox="0 0 64 64" width="512" xmlns="http://www.w3.org/2000/svg"><g id="Blue"><circle cx="32" cy="32" fill="#7cb8eb" r="29"/><path d="m43.794 5.508-3.794 3.492 3 1-3.2 3.282-.8 3.718 2 3 3 3 4-2 5 1-1 4 3 3 2-2 3.964 3.593a29 29 0 0 0 -17.17-25.085z" fill="#cdeef6"/><path d="m60.615 36.7-5.615-.7-4-2-4-1-5 3 2 2-2 2-5 2v6l4 2 2 3-3 5 1.425 1.425a29.03 29.03 0 0 0 19.19-22.725z" fill="#cdeef6"/><path d="m33 18h-3l-1-3 3-3-2-3-3-1-2 2h-3l-2-1v-3.4a28.986 28.986 0 0 0 -16.239 32.991l3.239-2.591 2 1 2-3 4 2 4-2-1-3-3-1-1-1v-2l3-1 3 1 2-3-2-1v-3l3-2 1 3 2 2 3-1 6 1z" fill="#cdeef6"/><path d="m28 34-2 3h-2l-3 2 2 3 3 2v3l4 1 2-3-1-4 3-3-2-4z" fill="#cdeef6"/><g fill="#4f83d1"><path d="m14 40h2v3h-2z"/><path d="m11 43h3v2h-3z"/><path d="m15.586 41h2.828v2h-2.828z" transform="matrix(.707 -.707 .707 .707 -24.719 24.322)"/><path d="m16 44.586h2v2.828h-2z" transform="matrix(.707 -.707 .707 .707 -27.548 25.494)"/><path d="m11.586 45h2.828v2h-2.828z" transform="matrix(.707 -.707 .707 .707 -28.719 22.665)"/><path d="m17 43h2v2h-2z"/><path d="m14 46h2v2h-2z"/><path d="m12 40.586h2v2.828h-2z" transform="matrix(.707 -.707 .707 .707 -25.891 21.494)"/><path d="m48 40h2v3h-2z"/><path d="m45 43h3v2h-3z"/><path d="m49.586 41h2.828v2h-2.828z" transform="matrix(.707 -.707 .707 .707 -14.761 48.364)"/><path d="m50 44.586h2v2.828h-2z" transform="matrix(.707 -.707 .707 .707 -17.589 49.536)"/><path d="m45.586 45h2.828v2h-2.828z" transform="matrix(.707 -.707 .707 .707 -18.761 46.707)"/><path d="m51 43h2v2h-2z"/><path d="m48 46h2v2h-2z"/><path d="m46 40.586h2v2.828h-2z" transform="matrix(.707 -.707 .707 .707 -15.933 45.536)"/><path d="m38 25h2v3h-2z"/><path d="m35 28h3v2h-3z"/><path d="m39.586 26h2.828v2h-2.828z" transform="matrix(.707 -.707 .707 .707 -7.083 36.899)"/><path d="m40 29.586h2v2.828h-2z" transform="matrix(.707 -.707 .707 .707 -9.912 38.071)"/><path d="m35.586 30h2.828v2h-2.828z" transform="matrix(.707 -.707 .707 .707 -11.083 35.243)"/><path d="m41 28h2v2h-2z"/><path d="m38 31h2v2h-2z"/><path d="m36 25.586h2v2.828h-2z" transform="matrix(.707 -.707 .707 .707 -8.255 34.071)"/><path d="m12 16h2v3h-2z"/><path d="m9 19h3v2h-3z"/><path d="m13.586 17h2.828v2h-2.828z" transform="matrix(.707 -.707 .707 .707 -8.335 15.879)"/><path d="m14 20.586h2v2.828h-2z" transform="matrix(.707 -.707 .707 .707 -11.163 17.05)"/><path d="m9.586 21h2.828v2h-2.828z" transform="matrix(.707 -.707 .707 .707 -12.335 14.222)"/><path d="m15 19h2v2h-2z"/><path d="m12 22h2v2h-2z"/><path d="m10 16.586h2v2.828h-2z" transform="matrix(.707 -.707 .707 .707 -9.506 13.05)"/><path d="m46 13h2v2h-2z"/><path d="m50 16h2v2h-2z"/><path d="m18 12h2v2h-2z"/><path d="m6 26h2v2h-2z"/><path d="m9 29h2v2h-2z"/><path d="m34 56h2v2h-2z"/><path d="m30 56h2v2h-2z"/></g><circle cx="15" cy="44" fill="#fff" r="2"/><circle cx="49" cy="44" fill="#fff" r="2"/><circle cx="39" cy="29" fill="#fff" r="2"/><circle cx="13" cy="20" fill="#fff" r="2"/><path d="m32 2a30 30 0 1 0 30 30 30.034 30.034 0 0 0 -30-30zm-28 30a28.022 28.022 0 0 1 15-24.788v1.788a1 1 0 0 0 .553.895l2 1a1 1 0 0 0 .447.105h3a1 1 0 0 0 .707-.293l1.564-1.562 2.087.7 1.355 2.033-2.42 2.42a1 1 0 0 0 -.241 1.023l1 3a1 1 0 0 0 .948.679h2.323l1.088 2.722-4.247-.708a1 1 0 0 0 -.48.038l-2.413.8-1.4-1.395-.926-2.776a1 1 0 0 0 -1.5-.516l-3 2a1 1 0 0 0 -.445.835v3a1 1 0 0 0 .553.895l.987.493-.948 1.422-2.276-.758a.991.991 0 0 0 -.632 0l-3 1a1 1 0 0 0 -.684.948v2a1 1 0 0 0 .293.707l1 1a1 1 0 0 0 .391.241l2.525.843.568 1.7-2.777 1.391-3.553-1.782a1 1 0 0 0 -1.279.34l-1.511 2.271-1.21-.611a1.007 1.007 0 0 0 -1.072.114l-1.958 1.571a28.056 28.056 0 0 1 -.417-4.785zm37.685 26.271-.426-.426 2.6-4.33a1 1 0 0 0 -.025-1.07l-2-3a1.018 1.018 0 0 0 -.385-.34l-3.449-1.723v-4.7l4.371-1.748a1.01 1.01 0 0 0 .336-.222l2-2a1 1 0 0 0 0-1.414l-1.095-1.098 3.547-2.128 3.492.873 3.9 1.952a.989.989 0 0 0 .323.1l4.567.571a28.1 28.1 0 0 1 -17.756 20.703zm18.315-26.271a28.14 28.14 0 0 1 -.238 3.588l-4.468-.559-3.847-1.929a1.047 1.047 0 0 0 -.205-.075l-4-1a.99.99 0 0 0 -.757.113l-5 3a1 1 0 0 0 -.192 1.564l1.293 1.298-1.148 1.147-4.809 1.924a1 1 0 0 0 -.629.929v6a1 1 0 0 0 .553.9l3.762 1.88 1.5 2.253-2.674 4.457a1 1 0 0 0 .15 1.222l.252.252a27.983 27.983 0 0 1 -34.663-19.987l2.245-1.8 1.428.714a1 1 0 0 0 1.279-.34l1.511-2.266 3.21 1.606a1 1 0 0 0 .894 0l4-2a1 1 0 0 0 .5-1.211l-1-3a.99.99 0 0 0 -.632-.632l-2.776-.926-.54-.54v-.865l2-.667 2.684.894a1 1 0 0 0 1.148-.393l2-3a1 1 0 0 0 -.385-1.45l-1.446-.719v-1.847l1.466-.976.586 1.757a1 1 0 0 0 .241.391l2 2a.994.994 0 0 0 1.023.241l2.765-.921 5.755.959a1 1 0 0 0 1.093-1.357l-2-5a1 1 0 0 0 -.929-.629h-2.279l-.576-1.729 2.562-2.564a1 1 0 0 0 .125-1.262l-2-3a1 1 0 0 0 -.516-.393l-3-1a1 1 0 0 0 -1.023.241l-1.707 1.707h-2.35l-1.236-.618v-2.128a27.945 27.945 0 0 1 20.96-.417l-2.637 2.428a1 1 0 0 0 .361 1.683l1.486.5-2.089 2.14a1 1 0 0 0 -.262.488l-.8 3.718a1.007 1.007 0 0 0 .146.765l2 3a1 1 0 0 0 .125.152l3 3a1 1 0 0 0 1.154.188l3.694-1.847 3.634.727-.745 2.983a1 1 0 0 0 .263.949l3 3a1 1 0 0 0 1.414 0l1.327-1.327 2.942 2.667c.014.313.027.629.027.949zm-2.328-5.741a1 1 0 0 0 -1.379.034l-1.293 1.293-1.893-1.893.863-3.451a1 1 0 0 0 -.77-1.222l-5-1a1.017 1.017 0 0 0 -.643.085l-3.357 1.678-2.42-2.42-1.714-2.563.648-3.023 3-3.076a1 1 0 0 0 -.4-1.646l-1.391-.464 2.055-1.891a28.073 28.073 0 0 1 15.747 21.419z" fill="#4f83d1"/><path d="m32.107 41.307 2.6-2.6a1 1 0 0 0 .188-1.154l-2-4a1 1 0 0 0 -.895-.553h-4a1 1 0 0 0 -.832.445l-1.703 2.555h-1.465a1.006 1.006 0 0 0 -.555.168l-3 2a1 1 0 0 0 -.277 1.387l2 3a1.014 1.014 0 0 0 .277.277l2.555 1.703v2.465a1 1 0 0 0 .758.97l4 1a1 1 0 0 0 1.074-.415l2-3a1 1 0 0 0 .138-.8zm-2.548 5.552-2.559-.64v-2.219a1 1 0 0 0 -.445-.832l-2.834-1.889-1.334-2 1.913-1.279h1.7a1 1 0 0 0 .832-.445l1.703-2.555h2.847l1.4 2.8-2.49 2.49a1 1 0 0 0 -.263.949l.893 3.571z" fill="#4f83d1"/><path d="m17.7 42.715 1.008-1.008-1.414-1.414-1.009 1.007a2.746 2.746 0 0 0 -.285-.116v-1.184h-2v1.184a2.746 2.746 0 0 0 -.285.117l-1.008-1.008-1.414 1.414 1.007 1.008a2.746 2.746 0 0 0 -.117.285h-1.183v2h1.184a2.746 2.746 0 0 0 .117.285l-1.008 1.008 1.414 1.414 1.008-1.007a2.746 2.746 0 0 0 .285.117v1.183h2v-1.184a2.746 2.746 0 0 0 .285-.117l1.008 1.008 1.414-1.414-1.007-1.008a2.746 2.746 0 0 0 .116-.285h1.184v-2h-1.184a2.746 2.746 0 0 0 -.116-.285zm-2.7 2.285a1 1 0 1 1 1-1 1 1 0 0 1 -1 1z" fill="#4f83d1"/><path d="m51.7 42.715 1.008-1.008-1.414-1.414-1.009 1.007a2.746 2.746 0 0 0 -.285-.116v-1.184h-2v1.184a2.746 2.746 0 0 0 -.285.117l-1.008-1.008-1.414 1.414 1.007 1.008a2.746 2.746 0 0 0 -.117.285h-1.183v2h1.184a2.746 2.746 0 0 0 .117.285l-1.008 1.008 1.414 1.414 1.008-1.007a2.746 2.746 0 0 0 .285.117v1.183h2v-1.184a2.746 2.746 0 0 0 .285-.117l1.008 1.008 1.414-1.414-1.007-1.008a2.746 2.746 0 0 0 .116-.285h1.184v-2h-1.184a2.746 2.746 0 0 0 -.116-.285zm-2.7 2.285a1 1 0 1 1 1-1 1 1 0 0 1 -1 1z" fill="#4f83d1"/><path d="m41.7 27.715 1.008-1.008-1.414-1.414-1.009 1.007a2.746 2.746 0 0 0 -.285-.116v-1.184h-2v1.184a2.746 2.746 0 0 0 -.285.117l-1.008-1.008-1.414 1.414 1.007 1.008a2.746 2.746 0 0 0 -.117.285h-1.183v2h1.184a2.746 2.746 0 0 0 .117.285l-1.008 1.008 1.414 1.414 1.008-1.007a2.746 2.746 0 0 0 .285.117v1.183h2v-1.184a2.746 2.746 0 0 0 .285-.117l1.008 1.008 1.414-1.414-1.007-1.008a2.746 2.746 0 0 0 .116-.285h1.184v-2h-1.184a2.746 2.746 0 0 0 -.116-.285zm-2.7 2.285a1 1 0 1 1 1-1 1 1 0 0 1 -1 1z" fill="#4f83d1"/><path d="m10.3 21.285-1.007 1.008 1.414 1.414 1.008-1.007a2.746 2.746 0 0 0 .285.117v1.183h2v-1.184a2.746 2.746 0 0 0 .285-.117l1.008 1.008 1.414-1.414-1.007-1.008a2.746 2.746 0 0 0 .116-.285h1.184v-2h-1.184a2.746 2.746 0 0 0 -.117-.285l1.008-1.008-1.414-1.414-1.008 1.007a2.746 2.746 0 0 0 -.285-.116v-1.184h-2v1.184a2.746 2.746 0 0 0 -.285.117l-1.008-1.008-1.414 1.414 1.007 1.008a2.746 2.746 0 0 0 -.117.285h-1.183v2h1.184a2.746 2.746 0 0 0 .116.285zm2.7-2.285a1 1 0 1 1 -1 1 1 1 0 0 1 1-1z" fill="#4f83d1"/><path d="m46 13h2v2h-2z" fill="#4f83d1"/><path d="m50 16h2v2h-2z" fill="#4f83d1"/><path d="m18 12h2v2h-2z" fill="#4f83d1"/><path d="m6 26h2v2h-2z" fill="#4f83d1"/><path d="m9 29h2v2h-2z" fill="#4f83d1"/><path d="m34 56h2v2h-2z" fill="#4f83d1"/><path d="m30 56h2v2h-2z" fill="#4f83d1"/></g></svg>